PathFileType	4	(X/Y/Z)	pose_F01_0-96.trc
DataRate	CameraRate	NumFrames	NumMarkers	Units	OrigDataRate	OrigDataStartFrame	OrigNumFrames
30	30	9	21	m	30	0	96
Frame#	Time	CHip			RHip			RKnee			RAnkle			RBigToe			RSmallToe			RHeel			LHip			LKnee			LAnkle			LBigToe			LSmallToe			LHeel			Neck			Nose			RShoulder			RElbow			RWrist			LShoulder			LElbow			LWrist			
		X1	Y1	Z1	X2	Y2	Z2	X3	Y3	Z3	X4	Y4	Z4	X5	Y5	Z5	X6	Y6	Z6	X7	Y7	Z7	X8	Y8	Z8	X9	Y9	Z9	X10	Y10	Z10	X11	Y11	Z11	X12	Y12	Z12	X13	Y13	Z13	X14	Y14	Z14	X15	Y15	Z15	X16	Y16	Z16	X17	Y17	Z17	X18	Y18	Z18	X19	Y19	Z19	X20	Y20	Z20	X21	Y21	Z21	
0	0.0	-0.21351931126493234	1.886734549794909	-0.5929743656291018	-0.22938184260344394	1.8972564515111454	-0.5238730889445887	-0.21699547700157418	1.716430449798498	-0.5092450652866131	-0.21531145521456402	1.5569377536128755	-0.4938850827880656	-0.2870774662543148	1.555002397201622	-0.49530061083402666				-0.20158789823547382	1.5435944405719935	-0.4855511886752305	-0.1968194698560595	1.9033805937604327	-0.6519412988822064	-0.19191013902476864	1.712492664534521	-0.6682519984364584	-0.17481080871185506	1.5532012734471292	-0.5635649717940037	-0.22716717592932434	1.5104037197848847	-0.6830940685769308	-0.20472043323217162	1.5202006668090386	-0.6575745649355337	-0.20504705891472186	1.5350367349297431	-0.56891389817061	-0.21286801547177137	2.054773921142314	-0.6343962963875227	-0.24299489599863514	2.1271834908358604	-0.6225933321410868	-0.22413430326822847	2.04897737190702	-0.5145879796766921	-0.23382531640781792	1.9181973350572017	-0.47222788595379434	-0.26232611004763157	1.74088754318901	-0.42353119149751356	-0.18246515310970407	2.0547372745432804	-0.6867253635392631	-1.415109417885979	1.867805337972366	0.6131264646811865	-0.20605885753865996	1.875701323637316	-0.6811279535549848
1	0.03333333333333333	-0.21365681498933342	1.8853827633736588	-0.5927416131840705	-0.2296747177275063	1.894734277153157	-0.5235028699065333	-0.21701646701539923	1.7166577133176129	-0.5092748984779902	-0.21544231376239584	1.55739679172948	-0.4938594027640527	-0.28502521967272565	1.5526857008375448	-0.4968745058146333				-0.20177650701209068	1.5441635827407045	-0.48544882728062494	-0.19713749130754296	1.9008703987300992	-0.6516062857017233	-0.19152648687282994	1.7134700985480766	-0.6646452162847742	-0.175438807375776	1.554596361047429	-0.567279829618884	-0.2264329442133134	1.5119364802233917	-0.6797112618545526	-0.2044468050640047	1.5215001796017895	-0.6581396272296945	-0.20276803046713804	1.5368659860849323	-0.5717721250759576	-0.21201625005390715	2.0546713689921896	-0.6315492600023839	-0.24294420471373093	2.1272482711478213	-0.6225641969753357	-0.2240708007111206	2.0490253526954225	-0.5146544807428522	-0.2338257462556827	1.9213056749157578	-0.4730509346684606	-0.2608119400911183	1.7522659313199878	-0.4273690361683678	-0.18245134126415333	2.0548846275790544	-0.6866055895114714	-1.4147347423388874	1.8691973371902355	0.6133831794233436	-0.20359705017451799	1.8764750273248092	-0.6832925537513546
2	0.06666666666666667	-0.2137943187137345	1.8840309769524086	-0.5925088607390392	-0.22996759285156868	1.8922121027951686	-0.5231326508684778	-0.21703745702922428	1.7168849768367278	-0.5093047316693674	-0.21557317231022766	1.5578558298460845	-0.49383372274003984	-0.2829729730911365	1.5503690044734675	-0.49844840079524				-0.20196511578870754	1.5447327249094156	-0.4853464658860194	-0.19745551275902642	1.8983602036997658	-0.6512712725212402	-0.19114283472089125	1.7144475325616322	-0.66103843413309	-0.17606680603969693	1.5559914486477286	-0.5709946874437644	-0.22569871249730245	1.5134692406618986	-0.6763284551321743	-0.20417317689583778	1.5227996923945404	-0.6587046895238554	-0.20048900201955422	1.5386952372401215	-0.5746303519813053	-0.21116448463604293	2.0545688168420653	-0.628702223617245	-0.24289351342882673	2.1273130514597822	-0.6225350618095846	-0.2240072981540127	2.049073333483825	-0.5147209818090124	-0.23382617610354747	1.9244140147743138	-0.47387398338312686	-0.2592977701346051	1.7636443194509654	-0.43120688083922204	-0.18243752941860258	2.0550319806148285	-0.6864858154836798	-1.4143600667917957	1.870589336408105	0.6136398941655008	-0.201135242810376	1.8772487310123025	-0.6854571539477243
3	0.1	-0.21393182243813558	1.8826791905311584	-0.5922761082940079	-0.23026046797563104	1.8896899284371802	-0.5227624318304224	-0.21705844704304933	1.7171122403558428	-0.5093345648607446	-0.21570403085805948	1.558314867962689	-0.49380804271602696	-0.28092072650954736	1.5480523081093902	-0.5000222957758467				-0.2021537245653244	1.5453018670781267	-0.4852441044914138	-0.1977735342105099	1.8958500086694323	-0.650936259340757	-0.19075918256895255	1.7154249665751877	-0.6574316519814059	-0.17669480470361787	1.5573865362480284	-0.5747095452686447	-0.2249644807812915	1.5150020011004055	-0.6729456484097961	-0.20389954872767085	1.5240992051872913	-0.6592697518180163	-0.1982099735719704	1.5405244883953106	-0.577488578886653	-0.2103127192181787	2.054466264691941	-0.6258551872321062	-0.24284282214392253	2.127377831771743	-0.6225059266438335	-0.22394379559690483	2.0491213142722273	-0.5147874828751725	-0.23382660595141225	1.92752235463287	-0.4746970320977931	-0.2577836001780919	1.7750227075819431	-0.4350447255100763	-0.18242371757305184	2.0551793336506026	-0.6863660414558882	-1.413985391244704	1.8719813356259745	0.613896608907658	-0.19867343544623403	1.8780224346997958	-0.6876217541440941
4	0.13333333333333333	-0.21406932616253666	1.8813274041099082	-0.5920433558489766	-0.23055334309969341	1.8871677540791918	-0.5223922127923669	-0.21707943705687438	1.7173395038749577	-0.5093643980521217	-0.2158348894058913	1.5587739060792936	-0.4937823626920141	-0.2788684799279582	1.545735611745313	-0.5015961907564533				-0.20234233334194127	1.5458710092468377	-0.48514174309680824	-0.19809155566199335	1.8933398136390989	-0.6506012461602739	-0.19037553041701386	1.7164024005887433	-0.6538248698297217	-0.1773228033675388	1.558781623848328	-0.578424403093525	-0.22423024906528055	1.5165347615389124	-0.6695628416874179	-0.20362592055950393	1.5253987179800421	-0.6598348141121771	-0.19593094512438658	1.5423537395504998	-0.5803468057920006	-0.2094609538003145	2.0543637125418166	-0.6230081508469674	-0.24279213085901832	2.127442612083704	-0.6224767914780824	-0.22388029303979695	2.0491692950606297	-0.5148539839413326	-0.23382703579927702	1.930630694491426	-0.4755200808124594	-0.2562694302215786	1.7864010957129208	-0.4388825701809305	-0.1824099057275011	2.0553266866863766	-0.6862462674280966	-1.4136107156976123	1.873373334843844	0.6141533236498151	-0.19621162808209205	1.878796138387289	-0.6897863543404639
5	0.16666666666666666	-0.21420682988693773	1.879975617688658	-0.5918106034039453	-0.23084621822375578	1.8846455797212034	-0.5220219937543115	-0.21710042707069943	1.7175667673940727	-0.5093942312434989	-0.21596574795372311	1.559232944195898	-0.4937566826680012	-0.27681623334636907	1.5434189153812357	-0.50317008573706				-0.20253094211855813	1.5464401514155488	-0.4850393817022027	-0.19840957711347681	1.8908296186087654	-0.6502662329797908	-0.18999187826507516	1.7173798346022988	-0.6502180876780375	-0.17795080203145974	1.5601767114486278	-0.5821392609184054	-0.2234960173492696	1.5180675219774193	-0.6661800349650396	-0.203352292391337	1.526698230772793	-0.660399876406338	-0.19365191667680276	1.544182990705689	-0.5832050326973482	-0.20860918838245027	2.0542611603916923	-0.6201611144618285	-0.24274143957411412	2.127507392395665	-0.6224476563123313	-0.22381679048268907	2.049217275849032	-0.5149204850074928	-0.2338274656471418	1.933739034349982	-0.47634312952712565	-0.25475526026506534	1.7977794838438985	-0.44272041485178476	-0.18239609388195036	2.0554740397221507	-0.686126493400305	-1.4132360401505206	1.8747653340617134	0.6144100383919723	-0.19374982071795008	1.8795698420747824	-0.6919509545368336
6	0.2	-0.2143443336113388	1.8786238312674077	-0.591577850958914	-0.23113909334781815	1.882123405363215	-0.521651774716256	-0.21712141708452448	1.7177940309131876	-0.5094240644348761	-0.21609660650155493	1.5596919823125026	-0.49373100264398834	-0.2747639867647799	1.5411022190171584	-0.5047439807176667				-0.202719550895175	1.5470092935842599	-0.4849370203075971	-0.19872759856496028	1.888319423578432	-0.6499312197993077	-0.18960822611313646	1.7183572686158544	-0.6466113055263533	-0.17857880069538068	1.5615717990489275	-0.5858541187432857	-0.22276178563325866	1.5196002824159263	-0.6627972282426614	-0.20307866422317009	1.5279977435655439	-0.6609649387004989	-0.19137288822921894	1.5460122418608782	-0.5860632596026959	-0.20775742296458605	2.054158608241568	-0.6173140780766897	-0.24269074828920992	2.1275721727076258	-0.6224185211465803	-0.2237532879255812	2.0492652566374345	-0.5149869860736529	-0.23382789549500657	1.9368473742085381	-0.4771661782417919	-0.25324109030855213	1.8091578719748762	-0.446558259522639	-0.1823822820363996	2.0556213927579248	-0.6860067193725133	-1.412861364603429	1.876157333279583	0.6146667531341294	-0.1912880133538081	1.8803435457622757	-0.6941155547332034
7	0.23333333333333334	-0.2144818373357399	1.8772720448461575	-0.5913450985138827	-0.23143196847188052	1.8796012310052266	-0.5212815556782006	-0.21714240709834953	1.7180212944323026	-0.5094538976262533	-0.21622746504938675	1.5601510204291071	-0.49370532261997546	-0.2727117401831908	1.538785522653081	-0.5063178756982734				-0.20290815967179185	1.547578435752971	-0.48483465891299155	-0.19904562001644374	1.8858092285480985	-0.6495962066188246	-0.18922457396119777	1.71933470262941	-0.6430045233746691	-0.17920679935930162	1.5629668866492272	-0.5895689765681661	-0.2220275539172477	1.5211330428544332	-0.6594144215202832	-0.20280503605500316	1.5292972563582947	-0.6615300009946598	-0.18909385978163512	1.5478414930160673	-0.5889214865080435	-0.20690565754672183	2.0540560560914436	-0.6144670416915509	-0.24264005700430571	2.1276369530195867	-0.6223893859808292	-0.2236897853684733	2.049313237425837	-0.515053487139813	-0.23382832534287135	1.9399557140670942	-0.4779892269564582	-0.2517269203520389	1.820536260105854	-0.45039610419349324	-0.18236847019084887	2.055768745793699	-0.6858869453447217	-1.4065514231857548	1.878346438254305	0.6025779229203654	-0.18882620598966612	1.881117249449769	-0.6962801549295732
8	0.26666666666666666	-0.21461934106014097	1.8759202584249073	-0.5911123460688514	-0.2317248435959429	1.8770790566472382	-0.5209113366401451	-0.21716339711217458	1.7182485579514175	-0.5094837308176304	-0.21635832359721857	1.5606100585457117	-0.4936796425959626	-0.27065949360160163	1.5364688262890038	-0.50789177067888				-0.2030967684484087	1.548147577921682	-0.484732297518386	-0.1993636414679272	1.883299033517765	-0.6492611934383414	-0.18884092180925907	1.7203121366429655	-0.6393977412229849	-0.17983479802322255	1.564361974249527	-0.5932838343930464	-0.22129332220123676	1.52266580329294	-0.656031614797905	-0.20253140788683624	1.5305967691510456	-0.6620950632888206	-0.1868148313340513	1.5496707441712565	-0.5917797134133912	-0.2060538921288576	2.0539535039413193	-0.611620005306412	-0.2425893657194015	2.1277017333315476	-0.6223602508150781	-0.22362628281136543	2.0493612182142393	-0.5151199882059732	-0.23382875519073612	1.9430640539256503	-0.47881227567112444	-0.25021275039552565	1.8319146482368316	-0.4542339488643475	-0.18235465834529813	2.055916098829473	-0.6857671713169301	-1.4046221311988134	1.8766941680000155	0.6001062062780975	-0.18636439862552415	1.8818909531372623	-0.698444755125943
